<svg width="38" height="43" viewBox="0 0 38 43" fill="none" xmlns="http://www.w3.org/2000/svg">
<path d="M27.6867 16.9388C28.134 17.2867 28.2031 17.9363 27.8391 18.3705L9.4836 40.2694C9.35831 40.4188 9.19205 40.5284 9.00529 40.5846L1.28839 42.906C0.593944 43.1149 -0.0849874 42.5383 0.00869648 41.8192L1.03998 33.9032C1.06461 33.7142 1.14275 33.5361 1.26521 33.39L19.4203 11.7296C19.7659 11.3172 20.3759 11.2523 20.8006 11.5826L27.6867 16.9388ZM37.0428 5.83455C37.466 6.18936 37.5215 6.82011 37.1667 7.24335L32.5174 12.789C32.1717 13.2013 31.5618 13.2662 31.1371 12.9359L24.251 7.57969C23.8037 7.23179 23.7346 6.58214 24.0986 6.14791L28.9528 0.35758C29.3076 -0.0656487 29.9384 -0.121121 30.3616 0.23368L37.0428 5.83455Z" fill="white"/>
</svg>
