<svg width="38" height="43" viewBox="0 0 38 43" fill="none" xmlns="http://www.w3.org/2000/svg">
<path d="M27.6867 16.9388C28.134 17.2867 28.2031 17.9363 27.8391 18.3705L9.4836 40.2694C9.35831 40.4188 9.19205 40.5284 9.00528 40.5846L1.28838 42.906C0.593941 43.1149 -0.0849903 42.5383 0.00869351 41.8192L1.03998 33.9032C1.06461 33.7141 1.14275 33.5361 1.2652 33.39L19.4203 11.7296C19.7659 11.3172 20.3759 11.2522 20.8006 11.5826L27.6867 16.9388ZM37.0428 5.83454C37.466 6.18935 37.5215 6.8201 37.1667 7.24334L32.5174 12.789C32.1717 13.2013 31.5618 13.2662 31.1371 12.9359L24.251 7.57967C23.8037 7.23178 23.7346 6.58213 24.0986 6.1479L28.9528 0.357567C29.3076 -0.0656609 29.9384 -0.121133 30.3616 0.233667L37.0428 5.83454Z" fill="#47403C"/>
</svg>
