<svg width="47" height="40" viewBox="0 0 47 40" fill="none" xmlns="http://www.w3.org/2000/svg">
<g clip-path="url(#clip0_30_425)">
<path d="M11 9L2.9837 13.8327C2.68352 14.0137 2.5 14.3386 2.5 14.6892V37.1244C2.5 37.6766 2.94772 38.1244 3.5 38.1244H43.5C44.0523 38.1244 44.5 37.6766 44.5 37.1244V14.6892C44.5 14.3386 44.3165 14.0137 44.0163 13.8327L36 9M11 9L23.0114 2.27362C23.315 2.10363 23.685 2.10363 23.9886 2.27362L36 9M11 9V29M36 9V29" stroke="#47403C" stroke-width="4"/>
<path d="M35.418 27L41.3027 36H5.69727L11.582 27H35.418Z" fill="#47403C" stroke="#47403C" stroke-width="4"/>
</g>
<defs>
<clipPath id="clip0_30_425">
<rect width="47" height="40" fill="white"/>
</clipPath>
</defs>
</svg>
