<svg width="125" height="123" viewBox="0 0 125 123" fill="none" xmlns="http://www.w3.org/2000/svg">
<path d="M62.2275 0.00660941C69.4999 -0.210836 79.113 5.22438 85.1045 5.22438C97.741 5.62429 110.74 -1.27557 120 5.22438C125.446 10.2245 123.232 20.2248 122.143 39.7244C122.143 49.7236 124.5 52.7892 124.5 58.2888C124.5 63.2888 123.232 70.7245 122.143 81.7244C120.509 89.7248 127.589 108.725 119.964 115.724C112.338 122.724 93.8193 115.725 85.1045 115.724C76.3896 115.724 75.5 122.007 62.7725 122.007C50.0001 122.289 49.1553 115.507 40.4404 115.507C31.7256 115.507 14.6256 121.289 7 114.289C-0.625156 107.289 4.49131 89.5066 2.85742 81.5066C1.76808 70.5068 6.95242e-05 62.7888 0 57.7888C0.000117844 52.2891 2.85738 49.5062 2.85742 39.5066C1.76809 20.0068 -0.446657 10.0066 5 5.00661C14.2595 -1.4933 27.259 5.40652 39.8955 5.00661C45.887 5.00661 53 -0.210779 62.2275 0.00660941ZM19.5 20.7888V99.7888H104.5V20.7888H19.5Z" fill="white"/>
</svg>
