<svg width="125" height="123" viewBox="0 0 125 123" fill="none" xmlns="http://www.w3.org/2000/svg">
<path d="M62.2275 0.0065918C69.4999 -0.210853 79.113 5.22437 85.1045 5.22437C97.741 5.62427 110.74 -1.27558 120 5.22437C125.446 10.2245 123.232 20.2249 122.143 39.7244C122.143 49.7234 124.5 52.7892 124.5 58.2888C124.5 63.2888 123.232 70.7247 122.143 81.7244C120.509 89.7249 127.589 108.725 119.964 115.724C112.338 122.724 93.8193 115.724 85.1045 115.724C76.3896 115.724 75.5 122.007 62.7725 122.007C50.0001 122.289 49.1553 115.507 40.4404 115.507C31.7256 115.507 14.6256 121.288 7 114.289C-0.625087 107.289 4.49118 89.5067 2.85742 81.5066C1.7681 70.507 0.00012292 62.7888 0 57.7888C0.000117843 52.2892 2.85734 49.506 2.85742 39.5066C1.7681 20.0069 -0.446514 10.0067 5 5.00659C14.2595 -1.49332 27.259 5.4065 39.8955 5.00659C45.887 5.00659 53 -0.210797 62.2275 0.0065918ZM19.5 20.7888V99.7888H104.5V20.7888H19.5Z" fill="#47403C"/>
</svg>
