<svg width="33" height="27" viewBox="0 0 33 27" fill="none" xmlns="http://www.w3.org/2000/svg">
<g clip-path="url(#clip0_14_248)">
<path d="M8.37695 15.873C8.96705 15.2493 9.96008 15.2469 10.5527 15.8682L15.4131 20.9648C16.3238 21.9195 15.6475 23.5 14.3281 23.5H4.64551C3.32909 23.5 2.65094 21.925 3.55566 20.9688L8.37695 15.873Z" fill="#47403C" stroke="#47403C"/>
<path d="M21.2363 11.4697C21.8532 10.6655 23.0739 10.6921 23.6553 11.5225L30.3877 21.1396C31.0836 22.1338 30.3717 23.5 29.1582 23.5H15.0537C13.8103 23.5 13.1068 22.0737 13.8633 21.0869L21.2363 11.4697Z" fill="#47403C" stroke="#47403C"/>
<circle cx="12" cy="8.5" r="2" fill="#47403C" stroke="#47403C"/>
<rect x="1.5" y="2" width="30" height="23" rx="2" stroke="#47403C" stroke-width="3"/>
</g>
<defs>
<clipPath id="clip0_14_248">
<rect width="33" height="27" fill="white"/>
</clipPath>
</defs>
</svg>
