<svg width="38" height="38" viewBox="0 0 38 38" fill="none" xmlns="http://www.w3.org/2000/svg">
<g clip-path="url(#clip0_30_428)">
<path d="M9 29H4C2.89543 29 2 28.1046 2 27V16C2 14.8954 2.89543 14 4 14H9M9 29V24.5C9 23.3954 9.89543 22.5 11 22.5H27C28.1046 22.5 29 23.3954 29 24.5V29M9 29V34C9 35.1046 9.89543 36 11 36H27C28.1046 36 29 35.1046 29 34V29M29 29H34C35.1046 29 36 28.1046 36 27V16C36 14.8954 35.1046 14 34 14H29M9 14V4C9 2.89543 9.89543 2 11 2H27C28.1046 2 29 2.89543 29 4V14M9 14H29" stroke="#47403C" stroke-width="4"/>
</g>
<defs>
<clipPath id="clip0_30_428">
<rect width="38" height="38" fill="white"/>
</clipPath>
</defs>
</svg>
