<svg width="46" height="46" viewBox="0 0 46 46" fill="none" xmlns="http://www.w3.org/2000/svg">
<path d="M7.72267 28.946L3.70711 32.9616C3.31658 33.3521 3.31658 33.9853 3.70711 34.3758L11.3799 42.0486C11.7704 42.4392 12.4036 42.4392 12.7941 42.0486L42.0487 12.7941C42.4392 12.4036 42.4392 11.7704 42.0487 11.3799L34.3758 3.70708C33.9853 3.31655 33.3522 3.31655 32.9616 3.70708L28.2904 8.37829M7.72267 28.946L12.5646 33.4328M7.72267 28.946L13.1532 23.5155M13.1532 23.5155L17.9804 27.781M13.1532 23.5155L17.9804 18.6883M17.9804 18.6883L22.564 22.9987M17.9804 18.6883L22.9121 13.7566M22.9121 13.7566L27.3463 18.2164M22.9121 13.7566L28.2904 8.37829M28.2904 8.37829L32.9981 12.9993" stroke="#47403C" stroke-width="4"/>
</svg>
