<svg width="47" height="40" viewBox="0 0 47 40" fill="none" xmlns="http://www.w3.org/2000/svg">
<g clip-path="url(#clip0_30_426)">
<path d="M44 38.5L35 25H12L4 37.5" stroke="#47403C" stroke-width="4"/>
<path d="M12.5 8L2.97773 13.8318C2.68094 14.0135 2.5 14.3365 2.5 14.6846V37.1244C2.5 37.6766 2.94772 38.1244 3.5 38.1244H43.5C44.0523 38.1244 44.5 37.6766 44.5 37.1244V14.6846C44.5 14.3365 44.3191 14.0135 44.0223 13.8318L34.5 8M12.5 8L23.0211 2.26119C23.3196 2.09839 23.6804 2.09839 23.9789 2.26119L34.5 8M12.5 8V26M34.5 8V26" stroke="#47403C" stroke-width="4"/>
<path d="M14 8.71429L23.5 3.5L34 8.71429V25H14V8.71429Z" fill="#47403C"/>
</g>
<defs>
<clipPath id="clip0_30_426">
<rect width="47" height="40" fill="white"/>
</clipPath>
</defs>
</svg>
