<svg width="50" height="49" viewBox="0 0 50 49" fill="none" xmlns="http://www.w3.org/2000/svg">
<path d="M1.26226 21.7093C0.960761 23.0581 1.00219 26.3125 3.57986 28.539" stroke="#6495ED" stroke-linecap="round"/>
<path d="M4.26638 18.446C3.61764 20.6749 3.59978 26.0286 8.71825 29.6121" stroke="#6495ED" stroke-linecap="round"/>
<path d="M36.7735 2.53371C37.9391 3.27657 40.2064 5.61145 39.9515 9.00803" stroke="#6495ED" stroke-linecap="round"/>
<path d="M32.3423 2.34145C34.3749 3.46285 38.1656 7.24341 37.0679 13.3944" stroke="#6495ED" stroke-linecap="round"/>
<path d="M17.0304 40.3315C21.5149 48.099 28.3637 47.6648 31.0304 46.3315C33.0304 45.3315 37.4418 44.0005 39.5304 38.3315C43.0304 28.8315 46.5303 27.8315 47.5303 27.3315C48.5303 26.8315 50.5303 24.3315 47.5303 23.3315C39.7523 21.8731 40.0092 27.977 36.3532 26.9382C36 26.7607 31.5 28.2607 29.5 34.7607C30.5 27.7607 35.317 26.4193 35 26.0508C31.7696 22.2944 30.5276 7.79714 30.5 6.8315C30.4696 5.76923 29.5 4.76923 28.5 4.76923C27.5 4.76923 26.5 5.76923 26.5 7.26923C26.5 8.76923 28.1053 19.524 27.0304 19.8315C25.6892 20.2151 23 7.26923 22 5.26923C21.2 3.66923 20.197 3.66483 19.5304 3.8315C18.6223 4.05852 17.6304 5.2315 18.0304 6.8315C18.5304 9.3315 22.9002 21.3868 22 21.7692C20.9696 22.2069 17.7757 12.8774 17.0304 10.7692C16.5 9.26922 15.5 8.51922 14.5 8.76922C13.5 9.01922 12.6 10.1692 13 11.7692C13.5 13.7692 18.5 24.7692 17.0304 25.3315C15.5607 25.8938 13.5 18.7692 13 17.7692C12.25 16.2692 11 15.9359 10 16.2692C9.00003 16.6026 8.28034 17.8315 9.03035 19.8315C12.0304 27.8315 13.5304 34.2692 17.0304 40.3315Z" fill="#6495ED"/>
</svg>
